<?xml version="1.0" encoding="UTF-8"?>
<svg id="Layer_1" data-name="Layer 1" xmlns="http://www.w3.org/2000/svg" viewBox="0 0 704 210">
  <defs>
    <style>
      .cls-1, .cls-2 {
        fill: #1b3847;
      }

      .cls-2 {
        stroke: #1b3847;
        stroke-miterlimit: 10;
        stroke-width: 6.28px;
      }
    </style>
  </defs>
  <path class="cls-2" d="M423.78,174V42.41h0v-22.81h-12.74v22.17h-84.02v-22.17h-12.74v22.81h0v109.72h-.02v21.87h-7.75v13.26h28.88v-13.26h-8.39v-18.31h84.02v18.31h-8.07v13.26h28.88v-13.26h-8.07ZM411.03,131.25l-32.3-32.67,32.3-32.67v65.34ZM369.59,89.34l-33.93-34.31h67.86l-33.93,34.31ZM327.03,64.78l33.42,33.8-33.42,33.8v-67.6ZM369.59,107.83l34.22,34.61h-68.44l34.22-34.61Z"/>
  <g>
    <path class="cls-1" d="M108.26,56.51h-19.35c-1.71-13.06-7.85-19.58-18.42-19.58-6.84,0-11.97,1.63-15.39,4.89-3.42,3.26-5.13,8.16-5.13,14.69,0,4.82,1.87,9.41,5.6,13.75l41.27,46.16c7.61,8.55,11.42,17.72,11.42,27.51v9.56c0,10.57-3.81,19.7-11.42,27.39-7.62,7.69-16.79,11.54-27.51,11.54h-19.35c-12.9,0-22.61-3.22-29.14-9.67-6.53-6.45-9.79-16.2-9.79-29.26h19.58v3.26c0,5.29,2.02,9.32,6.06,12.12,4.04,2.8,8.47,4.2,13.29,4.2,6.84,0,11.77-1.67,14.8-5.01,3.03-3.34,4.55-8.2,4.55-14.57,0-4.97-1.86-9.56-5.6-13.75l-41.27-46.16c-7.62-8.39-11.42-17.56-11.42-27.51v-9.56c0-10.57,3.81-19.7,11.42-27.39,7.61-7.69,16.79-11.54,27.51-11.54h19.35c24.4,0,37.38,12.98,38.93,38.93Z"/>
    <path class="cls-1" d="M146.96,192.43V17.57h38.93v71.34l62.95-71.34h34.27l-77.87,87.43,77.87,87.43h-38.93l-58.28-68.08v68.08h-38.93Z"/>
    <path class="cls-1" d="M459.82,192.43V17.57h97.22v19.35h-58.28v58.28h38.93v19.58h-38.93v77.64h-38.93Z"/>
    <path class="cls-1" d="M595.74,192.43V17.57h97.22v19.35h-58.28v58.28h38.93v19.58h-38.93v77.64h-38.93Z"/>
  </g>
</svg>