<?xml version="1.0" encoding="UTF-8"?>
<svg id="Layer_1" data-name="Layer 1" xmlns="http://www.w3.org/2000/svg" viewBox="0 0 1080 1080">
  <defs>
    <style>
      .cls-1, .cls-2 {
        fill: #1b3847;
      }

      .cls-2 {
        stroke: #1b3847;
        stroke-miterlimit: 10;
        stroke-width: 10.08px;
      }
    </style>
  </defs>
  <path class="cls-2" d="M247.76,651.01v-207h.01v-35.88h-20.85v34.87H89.4v-34.87h-20.85v35.88h.01v172.59h-.03v34.41h-12.69v20.85h47.27v-20.85h-13.73v-28.8h137.53v28.8h-13.21v20.85h47.27v-20.85h-13.21ZM226.91,583.77l-52.87-51.39,52.87-51.39v102.78ZM159.07,517.84l-55.53-53.98h111.06l-55.53,53.98ZM89.41,479.2l54.71,53.17-54.71,53.17v-106.35ZM159.07,546.92l56.01,54.44h-112.01l56.01-54.44Z"/>
  <g>
    <path class="cls-1" d="M439.46,491.51h-19.35c-1.71-13.06-7.85-19.58-18.42-19.58-6.84,0-11.97,1.63-15.39,4.89-3.42,3.26-5.13,8.16-5.13,14.69,0,4.82,1.87,9.41,5.6,13.75l41.27,46.16c7.61,8.55,11.42,17.72,11.42,27.51v9.56c0,10.57-3.81,19.7-11.42,27.39-7.62,7.69-16.79,11.54-27.51,11.54h-19.35c-12.9,0-22.61-3.22-29.14-9.67-6.53-6.45-9.79-16.2-9.79-29.26h19.58v3.26c0,5.29,2.02,9.32,6.06,12.12,4.04,2.8,8.47,4.2,13.29,4.2,6.84,0,11.77-1.67,14.8-5.01s4.55-8.2,4.55-14.57c0-4.97-1.86-9.56-5.6-13.75l-41.27-46.16c-7.62-8.39-11.42-17.56-11.42-27.51v-9.56c0-10.57,3.81-19.7,11.42-27.39,7.61-7.69,16.79-11.54,27.51-11.54h19.35c24.4,0,37.38,12.98,38.93,38.93Z"/>
    <path class="cls-1" d="M478.15,627.43v-174.85h38.93v71.34l62.95-71.34h34.27l-77.87,87.43,77.87,87.43h-38.93l-58.28-68.08v68.08h-38.93Z"/>
    <path class="cls-1" d="M635.52,627.43v-135.92c0-10.72,3.85-19.89,11.54-27.51,7.69-7.61,16.82-11.42,27.39-11.42h38.93c10.57,0,19.66,3.85,27.28,11.54,7.61,7.69,11.42,16.83,11.42,27.39v135.92h-38.7v-77.64h-38.93v77.64h-38.93ZM674.46,530.21h38.93v-38.7c0-5.44-1.9-10.06-5.71-13.87-3.81-3.81-8.43-5.71-13.87-5.71s-9.83,1.9-13.64,5.71c-3.81,3.81-5.71,8.43-5.71,13.87v38.7Z"/>
    <path class="cls-1" d="M791.02,627.43v-174.85h97.22v19.35h-58.28v58.28h38.93v19.58h-38.93v77.64h-38.93Z"/>
    <path class="cls-1" d="M926.94,627.43v-174.85h97.22v19.35h-58.28v58.28h38.93v19.58h-38.93v77.64h-38.93Z"/>
  </g>
</svg>